<?xml version="1.0" encoding="UTF-8"?>
<mxfile host="app.diagrams.net" modified="2025-10-16T00:00:00.000Z" agent="python">
  <diagram name="Example Workflow — Naïve Bayes">
    <mxGraphModel>
      <root>
        <mxCell id="0"/>
        <mxCell id="1" parent="0"/>
        <mxCell id="2" value="&lt;b&gt;User Question&lt;/b&gt;&lt;br&gt;“Explain Naïve Bayes in simple terms.”" style="rounded=1;whiteSpace=wrap;html=1;fillColor=#dae8fc;strokeColor=#6c8ebf;" vertex="1" parent="1">
          <mxGeometry as_="geometry" x="40" y="40" width="260" height="90"/>
        </mxCell>
        <mxCell id="3" value="&lt;b&gt;Flask Backend&lt;/b&gt;&lt;br&gt;Embed question → query pgvector&lt;br&gt;Check readability / detect complex terms" style="rounded=1;whiteSpace=wrap;html=1;fillColor=#d5e8d4;strokeColor=#82b366;" vertex="1" parent="1">
          <mxGeometry as_="geometry" x="340" y="40" width="260" height="90"/>
        </mxCell>
        <mxCell id="4" value="&lt;b&gt;Retrieve from pgvector&lt;/b&gt;&lt;br&gt;Top‑k chunks from Lecture Notes" style="rounded=1;whiteSpace=wrap;html=1;fillColor=#dae8fc;strokeColor=#6c8ebf;" vertex="1" parent="1">
          <mxGeometry as_="geometry" x="40" y="170" width="260" height="90"/>
        </mxCell>
        <mxCell id="5" value="&lt;b&gt;Readability Check&lt;/b&gt;&lt;br&gt;If dense (equations/terms) → add helper context" style="rounded=1;whiteSpace=wrap;html=1;fillColor=#fff2cc;strokeColor=#d6b656;" vertex="1" parent="1">
          <mxGeometry as_="geometry" x="340" y="170" width="260" height="90"/>
        </mxCell>
        <mxCell id="6" value="&lt;b&gt;Wikipedia Lookup&lt;/b&gt;&lt;br&gt;Search “Naïve Bayes” → 2–3 sentence summary" style="rounded=1;whiteSpace=wrap;html=1;fillColor=#dae8fc;strokeColor=#6c8ebf;" vertex="1" parent="1">
          <mxGeometry as_="geometry" x="640" y="170" width="260" height="90"/>
        </mxCell>
        <mxCell id="7" value="&lt;b&gt;Compose Context&lt;/b&gt;&lt;br&gt;Lecture Notes: [retrieved chunk]&lt;br&gt;Public Source: [Wikipedia summary]" style="rounded=1;whiteSpace=wrap;html=1;fillColor=#f5f5f5;strokeColor=#b3b3b3;" vertex="1" parent="1">
          <mxGeometry as_="geometry" x="340" y="310" width="260" height="90"/>
        </mxCell>
        <mxCell id="8" value="&lt;b&gt;Send to LLM (GPT‑3.5‑Turbo)&lt;/b&gt;&lt;br&gt;Prompt: Explain using both sources in student‑friendly language." style="rounded=1;whiteSpace=wrap;html=1;fillColor=#d5e8d4;strokeColor=#82b366;" vertex="1" parent="1">
          <mxGeometry as_="geometry" x="340" y="430" width="260" height="90"/>
        </mxCell>
        <mxCell id="9" value="&lt;b&gt;Return Answer&lt;/b&gt;&lt;br&gt;Merged, clear explanation → frontend" style="rounded=1;whiteSpace=wrap;html=1;fillColor=#dae8fc;strokeColor=#6c8ebf;" vertex="1" parent="1">
          <mxGeometry as_="geometry" x="340" y="550" width="260" height="90"/>
        </mxCell>
        <mxCell id="10" style="endArrow=block;html=1;strokeColor=#6c8ebf;" edge="1" parent="1" source="2" target="3">
          <mxGeometry as_="geometry" relative="1"/>
        </mxCell>
        <mxCell id="11" style="endArrow=block;html=1;strokeColor=#6c8ebf;" edge="1" parent="1" source="3" target="4">
          <mxGeometry as_="geometry" relative="1"/>
        </mxCell>
        <mxCell id="12" style="endArrow=block;html=1;strokeColor=#6c8ebf;" edge="1" parent="1" source="3" target="5">
          <mxGeometry as_="geometry" relative="1"/>
        </mxCell>
        <mxCell id="13" style="endArrow=block;html=1;strokeColor=#6c8ebf;" edge="1" parent="1" source="3" target="6">
          <mxGeometry as_="geometry" relative="1"/>
        </mxCell>
        <mxCell id="14" style="endArrow=block;html=1;strokeColor=#6c8ebf;" edge="1" parent="1" source="4" target="7">
          <mxGeometry as_="geometry" relative="1"/>
        </mxCell>
        <mxCell id="15" style="endArrow=block;html=1;strokeColor=#6c8ebf;" edge="1" parent="1" source="5" target="7">
          <mxGeometry as_="geometry" relative="1"/>
        </mxCell>
        <mxCell id="16" style="endArrow=block;html=1;strokeColor=#6c8ebf;" edge="1" parent="1" source="6" target="7">
          <mxGeometry as_="geometry" relative="1"/>
        </mxCell>
        <mxCell id="17" style="endArrow=block;html=1;strokeColor=#6c8ebf;" edge="1" parent="1" source="7" target="8">
          <mxGeometry as_="geometry" relative="1"/>
        </mxCell>
        <mxCell id="18" style="endArrow=block;html=1;strokeColor=#6c8ebf;" edge="1" parent="1" source="8" target="9">
          <mxGeometry as_="geometry" relative="1"/>
        </mxCell>
      </root>
    </mxGraphModel>
  </diagram>
</mxfile>
